<mxfile host="Electron" modified="2024-06-27T03:37:24.604Z" agent="Mozilla/5.0 (X11; Linux x86_64) AppleWebKit/537.36 (KHTML, like Gecko) draw.io/24.2.5 Chrome/120.0.6099.109 Electron/28.1.0 Safari/537.36" etag="QnGdjnslzyADPbb4aeeS" version="24.2.5" type="device">
  <diagram name="Page-1" id="tK4ZlZJ-obr3YAVWWc7f">
    <mxGraphModel dx="1434" dy="835" grid="1" gridSize="10" guides="1" tooltips="1" connect="1" arrows="1" fold="1" page="1" pageScale="1" pageWidth="850" pageHeight="1100" math="0" shadow="0">
      <root>
        <mxCell id="0" />
        <mxCell id="1" parent="0" />
        <mxCell id="ohNlAgRLq_NmiL2LjdC4-1" value="1" style="rounded=0;whiteSpace=wrap;html=1;shadow=0;strokeColor=#6c8ebf;strokeWidth=1;fontFamily=Ubuntu;fontSize=16;fontStyle=0;fillColor=#dae8fc;" parent="1" vertex="1">
          <mxGeometry x="280" y="320" width="40" height="40" as="geometry" />
        </mxCell>
        <mxCell id="ohNlAgRLq_NmiL2LjdC4-2" value="2" style="rounded=0;whiteSpace=wrap;html=1;shadow=0;strokeColor=#6c8ebf;strokeWidth=1;fontFamily=Ubuntu;fontSize=16;fontStyle=0;fillColor=#dae8fc;" parent="1" vertex="1">
          <mxGeometry x="320" y="320" width="40" height="40" as="geometry" />
        </mxCell>
        <mxCell id="ohNlAgRLq_NmiL2LjdC4-3" value="3" style="rounded=0;whiteSpace=wrap;html=1;shadow=0;strokeColor=#6c8ebf;strokeWidth=1;fontFamily=Ubuntu;fontSize=16;fontStyle=0;fillColor=#dae8fc;" parent="1" vertex="1">
          <mxGeometry x="360" y="320" width="40" height="40" as="geometry" />
        </mxCell>
        <mxCell id="ohNlAgRLq_NmiL2LjdC4-4" value="4" style="rounded=0;whiteSpace=wrap;html=1;shadow=0;strokeColor=#6c8ebf;strokeWidth=1;fontFamily=Ubuntu;fontSize=16;fontStyle=0;fillColor=#dae8fc;" parent="1" vertex="1">
          <mxGeometry x="400" y="320" width="40" height="40" as="geometry" />
        </mxCell>
        <mxCell id="ohNlAgRLq_NmiL2LjdC4-5" value="5" style="rounded=0;whiteSpace=wrap;html=1;shadow=0;strokeColor=#6c8ebf;strokeWidth=1;fontFamily=Ubuntu;fontSize=16;fontStyle=0;fillColor=#dae8fc;" parent="1" vertex="1">
          <mxGeometry x="440" y="320" width="40" height="40" as="geometry" />
        </mxCell>
        <mxCell id="ezokvTdM8ChZbksDJZ2M-1" value="k=2" style="text;html=1;align=center;verticalAlign=middle;whiteSpace=wrap;rounded=0;fontFamily=Ubuntu;fontSize=16;fontStyle=0;" vertex="1" parent="1">
          <mxGeometry x="500" y="325" width="60" height="30" as="geometry" />
        </mxCell>
        <mxCell id="ezokvTdM8ChZbksDJZ2M-2" value="arr=" style="text;html=1;align=center;verticalAlign=middle;whiteSpace=wrap;rounded=0;fontFamily=Ubuntu;fontSize=16;fontStyle=0;" vertex="1" parent="1">
          <mxGeometry x="220" y="325" width="60" height="30" as="geometry" />
        </mxCell>
        <mxCell id="ezokvTdM8ChZbksDJZ2M-19" style="edgeStyle=orthogonalEdgeStyle;rounded=1;orthogonalLoop=1;jettySize=auto;html=1;entryX=0.5;entryY=0;entryDx=0;entryDy=0;shadow=0;strokeColor=#6c8ebf;strokeWidth=1;fontFamily=Ubuntu;fontSize=14;fontStyle=0;endArrow=block;endFill=1;fillColor=#dae8fc;" edge="1" parent="1" source="ezokvTdM8ChZbksDJZ2M-3" target="ezokvTdM8ChZbksDJZ2M-9">
          <mxGeometry relative="1" as="geometry">
            <Array as="points">
              <mxPoint x="300" y="450" />
              <mxPoint x="340" y="450" />
            </Array>
          </mxGeometry>
        </mxCell>
        <mxCell id="ezokvTdM8ChZbksDJZ2M-3" value="1" style="rounded=0;whiteSpace=wrap;html=1;shadow=0;strokeColor=#d79b00;strokeWidth=1;fontFamily=Ubuntu;fontSize=16;fontStyle=0;fillColor=#ffe6cc;" vertex="1" parent="1">
          <mxGeometry x="280" y="400" width="40" height="40" as="geometry" />
        </mxCell>
        <mxCell id="ezokvTdM8ChZbksDJZ2M-18" style="edgeStyle=orthogonalEdgeStyle;rounded=1;orthogonalLoop=1;jettySize=auto;html=1;entryX=0.5;entryY=0;entryDx=0;entryDy=0;shadow=0;strokeColor=#6c8ebf;strokeWidth=1;fontFamily=Ubuntu;fontSize=14;fontStyle=0;endArrow=block;endFill=1;fillColor=#dae8fc;exitX=0.25;exitY=1;exitDx=0;exitDy=0;" edge="1" parent="1" source="ezokvTdM8ChZbksDJZ2M-4" target="ezokvTdM8ChZbksDJZ2M-8">
          <mxGeometry relative="1" as="geometry" />
        </mxCell>
        <mxCell id="ezokvTdM8ChZbksDJZ2M-4" value="2" style="rounded=0;whiteSpace=wrap;html=1;shadow=0;strokeColor=#d79b00;strokeWidth=1;fontFamily=Ubuntu;fontSize=16;fontStyle=0;fillColor=#ffe6cc;" vertex="1" parent="1">
          <mxGeometry x="320" y="400" width="40" height="40" as="geometry" />
        </mxCell>
        <mxCell id="ezokvTdM8ChZbksDJZ2M-5" value="3" style="rounded=0;whiteSpace=wrap;html=1;shadow=0;strokeColor=#6c8ebf;strokeWidth=1;fontFamily=Ubuntu;fontSize=16;fontStyle=0;fillColor=#dae8fc;" vertex="1" parent="1">
          <mxGeometry x="360" y="400" width="40" height="40" as="geometry" />
        </mxCell>
        <mxCell id="ezokvTdM8ChZbksDJZ2M-6" value="4" style="rounded=0;whiteSpace=wrap;html=1;shadow=0;strokeColor=#6c8ebf;strokeWidth=1;fontFamily=Ubuntu;fontSize=16;fontStyle=0;fillColor=#dae8fc;" vertex="1" parent="1">
          <mxGeometry x="400" y="400" width="40" height="40" as="geometry" />
        </mxCell>
        <mxCell id="ezokvTdM8ChZbksDJZ2M-7" value="5" style="rounded=0;whiteSpace=wrap;html=1;shadow=0;strokeColor=#6c8ebf;strokeWidth=1;fontFamily=Ubuntu;fontSize=16;fontStyle=0;fillColor=#dae8fc;" vertex="1" parent="1">
          <mxGeometry x="440" y="400" width="40" height="40" as="geometry" />
        </mxCell>
        <mxCell id="ezokvTdM8ChZbksDJZ2M-8" value="2" style="rounded=0;whiteSpace=wrap;html=1;shadow=0;strokeColor=#82b366;strokeWidth=1;fontFamily=Ubuntu;fontSize=16;fontStyle=0;fillColor=#d5e8d4;" vertex="1" parent="1">
          <mxGeometry x="280" y="480" width="40" height="40" as="geometry" />
        </mxCell>
        <mxCell id="ezokvTdM8ChZbksDJZ2M-9" value="1" style="rounded=0;whiteSpace=wrap;html=1;shadow=0;strokeColor=#82b366;strokeWidth=1;fontFamily=Ubuntu;fontSize=16;fontStyle=0;fillColor=#d5e8d4;" vertex="1" parent="1">
          <mxGeometry x="320" y="480" width="40" height="40" as="geometry" />
        </mxCell>
        <mxCell id="ezokvTdM8ChZbksDJZ2M-10" value="3" style="rounded=0;whiteSpace=wrap;html=1;shadow=0;strokeColor=#6c8ebf;strokeWidth=1;fontFamily=Ubuntu;fontSize=16;fontStyle=0;fillColor=#dae8fc;" vertex="1" parent="1">
          <mxGeometry x="360" y="480" width="40" height="40" as="geometry" />
        </mxCell>
        <mxCell id="ezokvTdM8ChZbksDJZ2M-11" value="4" style="rounded=0;whiteSpace=wrap;html=1;shadow=0;strokeColor=#6c8ebf;strokeWidth=1;fontFamily=Ubuntu;fontSize=16;fontStyle=0;fillColor=#dae8fc;" vertex="1" parent="1">
          <mxGeometry x="400" y="480" width="40" height="40" as="geometry" />
        </mxCell>
        <mxCell id="ezokvTdM8ChZbksDJZ2M-12" value="5" style="rounded=0;whiteSpace=wrap;html=1;shadow=0;strokeColor=#6c8ebf;strokeWidth=1;fontFamily=Ubuntu;fontSize=16;fontStyle=0;fillColor=#dae8fc;" vertex="1" parent="1">
          <mxGeometry x="440" y="480" width="40" height="40" as="geometry" />
        </mxCell>
        <mxCell id="ezokvTdM8ChZbksDJZ2M-13" value="2" style="rounded=0;whiteSpace=wrap;html=1;shadow=0;strokeColor=#6c8ebf;strokeWidth=1;fontFamily=Ubuntu;fontSize=16;fontStyle=0;fillColor=#dae8fc;" vertex="1" parent="1">
          <mxGeometry x="280" y="560" width="40" height="40" as="geometry" />
        </mxCell>
        <mxCell id="ezokvTdM8ChZbksDJZ2M-14" value="1" style="rounded=0;whiteSpace=wrap;html=1;shadow=0;strokeColor=#6c8ebf;strokeWidth=1;fontFamily=Ubuntu;fontSize=16;fontStyle=0;fillColor=#dae8fc;" vertex="1" parent="1">
          <mxGeometry x="320" y="560" width="40" height="40" as="geometry" />
        </mxCell>
        <mxCell id="ezokvTdM8ChZbksDJZ2M-25" style="edgeStyle=orthogonalEdgeStyle;rounded=1;orthogonalLoop=1;jettySize=auto;html=1;entryX=0.5;entryY=0;entryDx=0;entryDy=0;shadow=0;strokeColor=#6c8ebf;strokeWidth=1;fontFamily=Ubuntu;fontSize=14;fontStyle=0;endArrow=block;endFill=1;fillColor=#dae8fc;exitX=0.5;exitY=1;exitDx=0;exitDy=0;" edge="1" parent="1" source="ezokvTdM8ChZbksDJZ2M-15" target="ezokvTdM8ChZbksDJZ2M-24">
          <mxGeometry relative="1" as="geometry">
            <Array as="points">
              <mxPoint x="380" y="610" />
              <mxPoint x="460" y="610" />
            </Array>
          </mxGeometry>
        </mxCell>
        <mxCell id="ezokvTdM8ChZbksDJZ2M-15" value="3" style="rounded=0;whiteSpace=wrap;html=1;shadow=0;strokeColor=#d79b00;strokeWidth=1;fontFamily=Ubuntu;fontSize=16;fontStyle=0;fillColor=#ffe6cc;" vertex="1" parent="1">
          <mxGeometry x="360" y="560" width="40" height="40" as="geometry" />
        </mxCell>
        <mxCell id="ezokvTdM8ChZbksDJZ2M-26" style="edgeStyle=orthogonalEdgeStyle;rounded=1;orthogonalLoop=1;jettySize=auto;html=1;entryX=0.5;entryY=0;entryDx=0;entryDy=0;shadow=0;strokeColor=#6c8ebf;strokeWidth=1;fontFamily=Ubuntu;fontSize=14;fontStyle=0;endArrow=block;endFill=1;fillColor=#dae8fc;" edge="1" parent="1" source="ezokvTdM8ChZbksDJZ2M-16" target="ezokvTdM8ChZbksDJZ2M-23">
          <mxGeometry relative="1" as="geometry" />
        </mxCell>
        <mxCell id="ezokvTdM8ChZbksDJZ2M-16" value="4" style="rounded=0;whiteSpace=wrap;html=1;shadow=0;strokeColor=#d79b00;strokeWidth=1;fontFamily=Ubuntu;fontSize=16;fontStyle=0;fillColor=#ffe6cc;" vertex="1" parent="1">
          <mxGeometry x="400" y="560" width="40" height="40" as="geometry" />
        </mxCell>
        <mxCell id="ezokvTdM8ChZbksDJZ2M-27" style="edgeStyle=orthogonalEdgeStyle;rounded=1;orthogonalLoop=1;jettySize=auto;html=1;entryX=0.5;entryY=0;entryDx=0;entryDy=0;shadow=0;strokeColor=#6c8ebf;strokeWidth=1;fontFamily=Ubuntu;fontSize=14;fontStyle=0;endArrow=block;endFill=1;fillColor=#dae8fc;exitX=0.25;exitY=1;exitDx=0;exitDy=0;" edge="1" parent="1" source="ezokvTdM8ChZbksDJZ2M-17" target="ezokvTdM8ChZbksDJZ2M-22">
          <mxGeometry relative="1" as="geometry" />
        </mxCell>
        <mxCell id="ezokvTdM8ChZbksDJZ2M-17" value="5" style="rounded=0;whiteSpace=wrap;html=1;shadow=0;strokeColor=#d79b00;strokeWidth=1;fontFamily=Ubuntu;fontSize=16;fontStyle=0;fillColor=#ffe6cc;" vertex="1" parent="1">
          <mxGeometry x="440" y="560" width="40" height="40" as="geometry" />
        </mxCell>
        <mxCell id="ezokvTdM8ChZbksDJZ2M-20" value="2" style="rounded=0;whiteSpace=wrap;html=1;shadow=0;strokeColor=#6c8ebf;strokeWidth=1;fontFamily=Ubuntu;fontSize=16;fontStyle=0;fillColor=#dae8fc;" vertex="1" parent="1">
          <mxGeometry x="280" y="640" width="40" height="40" as="geometry" />
        </mxCell>
        <mxCell id="ezokvTdM8ChZbksDJZ2M-21" value="1" style="rounded=0;whiteSpace=wrap;html=1;shadow=0;strokeColor=#6c8ebf;strokeWidth=1;fontFamily=Ubuntu;fontSize=16;fontStyle=0;fillColor=#dae8fc;" vertex="1" parent="1">
          <mxGeometry x="320" y="640" width="40" height="40" as="geometry" />
        </mxCell>
        <mxCell id="ezokvTdM8ChZbksDJZ2M-22" value="5" style="rounded=0;whiteSpace=wrap;html=1;shadow=0;strokeColor=#82b366;strokeWidth=1;fontFamily=Ubuntu;fontSize=16;fontStyle=0;fillColor=#d5e8d4;" vertex="1" parent="1">
          <mxGeometry x="360" y="640" width="40" height="40" as="geometry" />
        </mxCell>
        <mxCell id="ezokvTdM8ChZbksDJZ2M-23" value="4" style="rounded=0;whiteSpace=wrap;html=1;shadow=0;strokeColor=#82b366;strokeWidth=1;fontFamily=Ubuntu;fontSize=16;fontStyle=0;fillColor=#d5e8d4;" vertex="1" parent="1">
          <mxGeometry x="400" y="640" width="40" height="40" as="geometry" />
        </mxCell>
        <mxCell id="ezokvTdM8ChZbksDJZ2M-24" value="3" style="rounded=0;whiteSpace=wrap;html=1;shadow=0;strokeColor=#82b366;strokeWidth=1;fontFamily=Ubuntu;fontSize=16;fontStyle=0;fillColor=#d5e8d4;" vertex="1" parent="1">
          <mxGeometry x="440" y="640" width="40" height="40" as="geometry" />
        </mxCell>
        <mxCell id="ezokvTdM8ChZbksDJZ2M-38" style="edgeStyle=orthogonalEdgeStyle;rounded=1;orthogonalLoop=1;jettySize=auto;html=1;entryX=0.5;entryY=0;entryDx=0;entryDy=0;shadow=0;strokeColor=#6c8ebf;strokeWidth=1;fontFamily=Ubuntu;fontSize=14;fontStyle=0;endArrow=block;endFill=1;fillColor=#dae8fc;" edge="1" parent="1" source="ezokvTdM8ChZbksDJZ2M-28" target="ezokvTdM8ChZbksDJZ2M-37">
          <mxGeometry relative="1" as="geometry">
            <Array as="points">
              <mxPoint x="300" y="770" />
              <mxPoint x="460" y="770" />
            </Array>
          </mxGeometry>
        </mxCell>
        <mxCell id="ezokvTdM8ChZbksDJZ2M-28" value="2" style="rounded=0;whiteSpace=wrap;html=1;shadow=0;strokeColor=#d79b00;strokeWidth=1;fontFamily=Ubuntu;fontSize=16;fontStyle=0;fillColor=#ffe6cc;" vertex="1" parent="1">
          <mxGeometry x="280" y="720" width="40" height="40" as="geometry" />
        </mxCell>
        <mxCell id="ezokvTdM8ChZbksDJZ2M-39" style="edgeStyle=orthogonalEdgeStyle;rounded=1;orthogonalLoop=1;jettySize=auto;html=1;entryX=0.5;entryY=0;entryDx=0;entryDy=0;shadow=0;strokeColor=#6c8ebf;strokeWidth=1;fontFamily=Ubuntu;fontSize=14;fontStyle=0;endArrow=block;endFill=1;fillColor=#dae8fc;exitX=0.5;exitY=1;exitDx=0;exitDy=0;" edge="1" parent="1" source="ezokvTdM8ChZbksDJZ2M-29" target="ezokvTdM8ChZbksDJZ2M-36">
          <mxGeometry relative="1" as="geometry">
            <Array as="points">
              <mxPoint x="340" y="780" />
              <mxPoint x="420" y="780" />
            </Array>
          </mxGeometry>
        </mxCell>
        <mxCell id="ezokvTdM8ChZbksDJZ2M-29" value="1" style="rounded=0;whiteSpace=wrap;html=1;shadow=0;strokeColor=#d79b00;strokeWidth=1;fontFamily=Ubuntu;fontSize=16;fontStyle=0;fillColor=#ffe6cc;" vertex="1" parent="1">
          <mxGeometry x="320" y="720" width="40" height="40" as="geometry" />
        </mxCell>
        <mxCell id="ezokvTdM8ChZbksDJZ2M-40" style="edgeStyle=orthogonalEdgeStyle;rounded=1;orthogonalLoop=1;jettySize=auto;html=1;entryX=0.5;entryY=0;entryDx=0;entryDy=0;shadow=0;strokeColor=#6c8ebf;strokeWidth=1;fontFamily=Ubuntu;fontSize=14;fontStyle=0;endArrow=block;endFill=1;fillColor=#dae8fc;" edge="1" parent="1" source="ezokvTdM8ChZbksDJZ2M-30" target="ezokvTdM8ChZbksDJZ2M-35">
          <mxGeometry relative="1" as="geometry" />
        </mxCell>
        <mxCell id="ezokvTdM8ChZbksDJZ2M-30" value="5" style="rounded=0;whiteSpace=wrap;html=1;shadow=0;strokeColor=#d79b00;strokeWidth=1;fontFamily=Ubuntu;fontSize=16;fontStyle=0;fillColor=#ffe6cc;" vertex="1" parent="1">
          <mxGeometry x="360" y="720" width="40" height="40" as="geometry" />
        </mxCell>
        <mxCell id="ezokvTdM8ChZbksDJZ2M-41" style="edgeStyle=orthogonalEdgeStyle;rounded=1;orthogonalLoop=1;jettySize=auto;html=1;entryX=0.5;entryY=0;entryDx=0;entryDy=0;shadow=0;strokeColor=#6c8ebf;strokeWidth=1;fontFamily=Ubuntu;fontSize=14;fontStyle=0;endArrow=block;endFill=1;fillColor=#dae8fc;exitX=0.25;exitY=1;exitDx=0;exitDy=0;" edge="1" parent="1" source="ezokvTdM8ChZbksDJZ2M-31" target="ezokvTdM8ChZbksDJZ2M-34">
          <mxGeometry relative="1" as="geometry">
            <Array as="points">
              <mxPoint x="410" y="790" />
              <mxPoint x="340" y="790" />
            </Array>
          </mxGeometry>
        </mxCell>
        <mxCell id="ezokvTdM8ChZbksDJZ2M-31" value="4" style="rounded=0;whiteSpace=wrap;html=1;shadow=0;strokeColor=#d79b00;strokeWidth=1;fontFamily=Ubuntu;fontSize=16;fontStyle=0;fillColor=#ffe6cc;" vertex="1" parent="1">
          <mxGeometry x="400" y="720" width="40" height="40" as="geometry" />
        </mxCell>
        <mxCell id="ezokvTdM8ChZbksDJZ2M-42" style="edgeStyle=orthogonalEdgeStyle;rounded=1;orthogonalLoop=1;jettySize=auto;html=1;entryX=0.5;entryY=0;entryDx=0;entryDy=0;shadow=0;strokeColor=#6c8ebf;strokeWidth=1;fontFamily=Ubuntu;fontSize=14;fontStyle=0;endArrow=block;endFill=1;fillColor=#dae8fc;exitX=0.25;exitY=1;exitDx=0;exitDy=0;" edge="1" parent="1" source="ezokvTdM8ChZbksDJZ2M-32" target="ezokvTdM8ChZbksDJZ2M-33">
          <mxGeometry relative="1" as="geometry">
            <Array as="points">
              <mxPoint x="450" y="800" />
              <mxPoint x="300" y="800" />
            </Array>
          </mxGeometry>
        </mxCell>
        <mxCell id="ezokvTdM8ChZbksDJZ2M-32" value="3" style="rounded=0;whiteSpace=wrap;html=1;shadow=0;strokeColor=#d79b00;strokeWidth=1;fontFamily=Ubuntu;fontSize=16;fontStyle=0;fillColor=#ffe6cc;" vertex="1" parent="1">
          <mxGeometry x="440" y="720" width="40" height="40" as="geometry" />
        </mxCell>
        <mxCell id="ezokvTdM8ChZbksDJZ2M-33" value="3" style="rounded=0;whiteSpace=wrap;html=1;shadow=0;strokeColor=#82b366;strokeWidth=1;fontFamily=Ubuntu;fontSize=16;fontStyle=0;fillColor=#d5e8d4;" vertex="1" parent="1">
          <mxGeometry x="280" y="820" width="40" height="40" as="geometry" />
        </mxCell>
        <mxCell id="ezokvTdM8ChZbksDJZ2M-34" value="4" style="rounded=0;whiteSpace=wrap;html=1;shadow=0;strokeColor=#82b366;strokeWidth=1;fontFamily=Ubuntu;fontSize=16;fontStyle=0;fillColor=#d5e8d4;" vertex="1" parent="1">
          <mxGeometry x="320" y="820" width="40" height="40" as="geometry" />
        </mxCell>
        <mxCell id="ezokvTdM8ChZbksDJZ2M-35" value="5" style="rounded=0;whiteSpace=wrap;html=1;shadow=0;strokeColor=#82b366;strokeWidth=1;fontFamily=Ubuntu;fontSize=16;fontStyle=0;fillColor=#d5e8d4;" vertex="1" parent="1">
          <mxGeometry x="360" y="820" width="40" height="40" as="geometry" />
        </mxCell>
        <mxCell id="ezokvTdM8ChZbksDJZ2M-36" value="1" style="rounded=0;whiteSpace=wrap;html=1;shadow=0;strokeColor=#82b366;strokeWidth=1;fontFamily=Ubuntu;fontSize=16;fontStyle=0;fillColor=#d5e8d4;" vertex="1" parent="1">
          <mxGeometry x="400" y="820" width="40" height="40" as="geometry" />
        </mxCell>
        <mxCell id="ezokvTdM8ChZbksDJZ2M-37" value="2" style="rounded=0;whiteSpace=wrap;html=1;shadow=0;strokeColor=#82b366;strokeWidth=1;fontFamily=Ubuntu;fontSize=16;fontStyle=0;fillColor=#d5e8d4;" vertex="1" parent="1">
          <mxGeometry x="440" y="820" width="40" height="40" as="geometry" />
        </mxCell>
      </root>
    </mxGraphModel>
  </diagram>
</mxfile>
